<?xml version="1.0" encoding="UTF-8"?>
<svg width="408.42" height="448.63" enable-background="new 0 0 408.417 448.633" viewBox="0 0 408.417 448.633" xmlns="http://www.w3.org/2000/svg">
 <g fill-rule="evenodd">
  <path d="m275.5,18.317c7.684.424 19.018-6.092 23.888,2.389 3.629-1.244 8.848,1.403 11.943-1.592 3.012,2.031 5.352,4.734 8.759,6.37-1.338,5.343-7.657,1.898-12.74,2.389-2.233-2.328 3.139-1.541 2.389-4.777-2.766.153-3.023,2.816-5.573,3.185-2.276-2.767-7.574-2.511-10.352-4.777-2.508-.385-1.803,2.444-4.777,1.593-10.509-2.044-18.966,1.15-29.461,0-4.4,4.889-10.868,7.71-13.536,14.332 3.549.362 6.334-1.031 8.759,3.185 5.003-.444 7.401-5.895 11.943-2.389-.79,4.761-5.884,5.922-8.759,8.758-1.173,1.158-1.101,3.288-2.389,4.778-1.437,1.662-4.363,2.525-5.573,3.981-1.348,1.622-2.587,4.346-3.981,6.37-1.252,1.815-4.085,3.567-3.185,6.37 6.071,1.03 3.327-6.759 10.351-4.777 1.258-3.116-2.067-1.648-2.389-3.185 7.137-11.176 16.771-19.856 28.665-26.276 3.686,1.572 6.674-.843 9.555,0 5.543,1.623 7.531,8.729 10.352,13.536-5.061,4.844-11.656,8.728-15.129,15.925-.748,1.55-2.732,2.417-.796,3.981 2.718.341 5.398-2.267 7.166-3.981 .945-.917.825-2.163 1.592-3.185 6.606-8.808 16.866-14.641 26.276-20.702 1.963-.105 3.837-.121 4.777.796 3.615-3.653 12.2-4.042 15.925,0v5.574c6.546,8.583 5.939,24.316 18.313,27.072 .386,3.04-.226,5.083-1.593,6.37-.451,3.001 1.961,14.207-1.592,16.721-2.903.986-.82-2.466-1.593-3.981-.56-1.096-2.099-1.036-2.389-2.389-.635-2.959.458-6.411 0-10.351-1.081-2.104-4.672-1.698-6.37-3.185-.559-2.947 2.792-1.986 3.981-3.185-.393-3.588-3.466-4.497-3.981-7.962-6.347-.242-10.646,1.563-14.332,3.981-.59,2.712 2.935,1.312 3.185,3.185 4.481,11.91 11.791,17.966 11.147,32.646 .698,2.556-2.065,1.651-2.389,3.185 .173,7.259 2.519,12.344 5.573,16.721 .059,9.559 1.595,27.707.797,38.219 .01,1.583 2.172,1.012 1.592,3.185 4.329-.184 2.947-6.077 3.186-10.351 2.741-4.956 4.175-11.219 8.759-14.333 3.919.858 5.111,4.443 5.573,8.759-1.665,1.735-2.272-.398-4.777,0-3.222,6.599-6.577,13.063-7.962,21.499-2.705-.117-4.375-1.755-5.574.796-.258,6.417-3.188,13.692-4.777,19.11-1.228,4.187-2.812,7.431-3.981,11.147-.379,1.208.377,2.772 0,3.981-.539,1.727-1.241,4.016-1.592,7.167-.484,4.332-4.848,13.047-3.981,19.109 2.558.17 1.938-2.84 3.185-3.982 2.671,3.732-.224,9.598-.796,14.334-.947,7.842-3.252,12.27-6.37,19.109-2.013,4.412-3.696,9.938-7.166,11.943-2.152-5.408.179-10.215-.796-14.332-1.604-6.77-10.23-11.631-11.944-19.109-.432-3.086 4.62-.689 4.777-3.186-.129-.926.176-1.418.797-1.594-.918-2.297-5.307-5.268-7.963-3.184-4.429-3.533-6.883-9.043-6.369-17.518 5.494,1.938 6.897,7.965 11.943,10.352 1.993.135 2.493-1.225 3.185-2.389-1.676-7.35-7.641-10.408-15.128-11.943 4.771-24.943-20.516-19.829-31.85-28.666-1.499-5.886-1.049-12.501-1.593-17.517-6.325-3.595-15.096-.194-21.498-1.592-1.061-3.476-.625-6.637.796-9.555 2.622-1.784 5.503,2.662 8.759,0-.971-7.788-8.861-8.656-14.332-11.943-7.721,1.891-14.06-1.48-20.703-.796-3.458.356-6.154,3.802-10.351,2.389-3.179,2.13-6.502,4.115-7.962,7.962 1.836,2.928 6.161-1.003 10.351-1.592 6.335-.891 13.376.325 18.313,1.592-.922,3.06-6.976.986-10.351,1.593-3.201,1.045-2.267,6.226-2.389,10.351-12.892,1.158-28.208,1.324-42.201,0 .309-6.944-3.364-9.907-4.777-15.129-.334-2.851-4.628-1.742-4.777-4.777 10.443-5.46 10.199,10.852 15.925,15.128 1.98.123 2.465-1.25 3.981-1.592-.158-9.551 1.552-16.286-1.592-23.091 2.342-4.293 8.271-5 8.758-11.147-.207-3.509-5.892-1.539-7.962-3.185 1.183-2.001 6.914.544 7.167-2.389-.266-3.45-4.41-3.022-6.37-4.777 3.875-7.483.789-19.99 6.37-27.072-2.041-2.89-.398-5.069-2.389-7.167-3.814.167-8.754-.792-10.351,1.593-.236,2.094 3.089.626 2.389,3.185-2.501-.377-3.253.993-3.981,2.389-.589,2.712 2.934,1.312 3.185,3.185-2.879,3.575-1.583,5.158-.796,10.351-3.788,1.135-3.075-2.232-4.777-3.185-1.798-15.106 4.045-21.664 3.981-35.035 3.05-1.993 3.768-6.317 5.573-9.555 5.804-.566 7.664-5.077 13.536-5.574 .721,1.403 2.931,1.315 3.185,3.185 .326,1.918-1.454,1.73-.796,3.981-5.987.476-9.935,5.105-7.962,11.147-2.737-.349-4.463.314-6.37.796-5.651,8.766 5.802,10.836 11.943,12.74 4.462-1.555 1.71-5.671 3.981-8.759 5.202-2.495 13.426-1.968 19.905-3.185 1.945-3.742-3.181-5.743-4.777-7.962-1.001-1.394-.547-3.279-2.389-3.981-1.993-.76-4.722.55-7.166,0-4.047-3.119-4.21-10.123-9.555-11.944-3.754-.039-4.862,2.57-8.758,2.389 1.628-3.23 3.333-6.847 5.573-9.555 3.438-4.153 8.535-6.939 11.944-11.147 10.09.472 15.464-.645 22.294-5.574 4.027-2.906 6.939-8.662 11.944-3.981 7.437.372 14.185-5.157 19.906-1.592 4.032-2.671 8.208-.93 11.943.796-.11,1.963-.13,3.837.79,4.778zm-10.35-3.185c-4.839,2.062-8.478,5.324-14.333,6.37-4.596,5.547-11.402,10.523-15.924,15.128-1.656,1.687-5.308,2.962-3.982,5.574 13.477-4.572 17.302-18.795 31.054-23.091 2.816-1.266 4.954,1.407 6.37-1.592-1.54-.324-.63-3.087-3.19-2.389zm-58.12,15.925c-1.547.835 2.955,2.291 2.389,4.777-.339,1.519-2.275,1.441-1.593,3.981 1.499,1.952 3.005,3.896 3.185,7.166 10.71,4.684 13.917,16.871 25.479,20.703 4.545-7.739-5.031-13.688-8.758-18.313 1.584-1.866 1.834-5.066 1.592-8.759-8.28-2.98-13.42-21.27-22.3-9.555zm63.69,14.332c-1.934,1.283-4.184,5.325-6.37,7.166-4.589,3.864-9.347,9.323-10.351,15.925 2.707-.629 5.607-.143 9.555,1.593 2.808-1.311 6.441-2.219 8.759,0 5.623-4.197 10.339-9.301 13.536-15.925-4.026-1.65-6.483,4.479-10.352,5.574-.207-2.332 1.8-2.446 1.593-4.778-3.56-.374-3.06,3.311-6.37,3.185 .996-4.469 8.003-6.646 7.166-10.351-8.732,2.945-10.994,12.362-18.313,16.721 2.795-9.945 11.454-14.026 17.518-20.702-1.91-1.274-4.66.448-6.39,1.592zm51.76-1.592c-12.009,7.367-23.11,15.64-30.258,27.868 5.243,1.819 7.271-4.458 9.556-7.166 6.712-7.958 13.218-14.641 22.294-19.11-.09-.972-.23-1.885-1.59-1.592zm7.96,1.592c-6.927,1.951-13.549,6.236-17.518,10.351-3.571,3.705-9.46,7.626-8.758,11.944 3.465,2.687 4.373-2.688 7.962-2.389 9.864,2.044 18.728-1.328 26.276-3.981-.068-5.771-4.279-7.399-7.167-10.351 1.621-.768 1.721-3.058 1.593-5.574h-2.38zm-73.25,8.759c2.68,2.418 2.41-2.944 0,0zm-3.19,4.777c2.459,1.041 4.517-2.259 2.389-3.185-.32,1.534-3.09.629-2.39,3.185zm79.63,86.795c-4.351-.958-4.505-6.112-9.556-6.37-2.437.483-4.148,1.69-6.369,2.389-13.334-4.37-28.21,2.768-35.035,11.944 4.4,5.817 11.128.575 15.129,0 10.922-1.57 19.245-3.601 30.257-3.981 3.774.738 4.315,4.708 9.555,3.981-.463-6.408.863-13.29 1.593-22.295-.176-.621-.667-.926-1.593-.796-2.04,4.42-3.72,11.32-3.97,15.14zm-74.85-7.97c-3.396,3.935.354,11.626 3.981,13.536 3.22-4.39 2.94-13.06-3.98-13.54zm62.9,20.71c-8.182-1.312-19.062-.981-27.868,3.981-.593-2.451 2.186-1.53 1.593-3.981-4.521-.008-8.186.838-9.555,3.981 4.277.652 3.771,1.696 3.185,6.37 4.132,2.238 10.983,3.097 17.518,3.185 5.74.077 13.208.008 15.128-3.981-1.061-.797-2.403-1.312-3.185-2.389 1.151-1.502 1.778-3.529 4.777-3.185 2.955,1.026 2.566,5.397 6.37,5.574 2.513-.141 4.748-.56 4.777-3.185-.796-3.171-3.268-2.295-1.593-6.37-2.425-3.68-9.591-2.619-14.332-3.981-.6,3 4.24.55 3.19,3.99zm-45.38,15.12c3.438-.951 4.464,2.608 6.37.796 1.654-2.858.413-8.61.797-12.739-1.682-.708-2.354-2.424-4.778-2.389-2.44,3.72-3.47,9.22-2.39,14.33zm51.75-3.98h-2.389c-3.343,3.293-9.054,4.217-13.536,6.37-.916-2.201-5.586-1.483-5.573,1.593 7.179,3.953 20.668,2.111 23.091-5.574-1.11-.21-.9-1.75-1.59-2.39z" fill="#fff"/>
  <path d="m268.34,17.521c-1.416,2.999-3.554.326-6.37,1.592-13.752,4.296-17.577,18.519-31.054,23.091-1.325-2.611 2.326-3.887 3.982-5.574 4.521-4.605 11.328-9.581 15.924-15.128 5.855-1.046 9.494-4.308 14.333-6.37 2.56-.698 1.65,2.065 3.19,2.389z"/>
  <path d="m229.32,40.612c.242,3.692-.008,6.893-1.592,8.759 3.727,4.626 13.303,10.574 8.758,18.313-11.562-3.832-14.77-16.019-25.479-20.703-.18-3.271-1.687-5.214-3.185-7.166-.683-2.54 1.253-2.462 1.593-3.981 .566-2.487-3.937-3.942-2.389-4.777 8.89-11.715 14.03,6.575 22.3,9.555z"/>
  <path d="m277.1,43.797c-6.063,6.676-14.723,10.757-17.518,20.702 7.319-4.359 9.581-13.776 18.313-16.721 .837,3.706-6.17,5.882-7.166,10.351 3.311.125 2.811-3.559 6.37-3.185 .207,2.332-1.8,2.446-1.593,4.778 3.868-1.094 6.325-7.224 10.352-5.574-3.197,6.624-7.913,11.728-13.536,15.925-2.317-2.219-5.951-1.311-8.759,0-3.947-1.735-6.848-2.222-9.555-1.593 1.004-6.602 5.762-12.061 10.351-15.925 2.187-1.841 4.437-5.883 6.37-7.166 1.73-1.144 4.48-2.866 6.38-1.592z"/>
  <path d="m324.07,45.389c-9.076,4.469-15.582,11.152-22.294,19.11-2.284,2.708-4.312,8.985-9.556,7.166 7.147-12.229 18.249-20.501 30.258-27.868 1.36-.293 1.5.62 1.59,1.592z"/>
  <path d="m332.83,45.389c.128,2.516.028,4.806-1.593,5.574 2.888,2.952 7.099,4.581 7.167,10.351-7.549,2.653-16.412,6.025-26.276,3.981-3.589-.299-4.497,5.076-7.962,2.389-.702-4.317 5.187-8.239 8.758-11.944 3.969-4.115 10.591-8.4 17.518-10.351h2.38z"/>
  <path d="m257.19 54.148c2.41-2.944 2.68 2.418 0 0z"/>
  <path d="m256.39,55.74c2.128.926.07,4.226-2.389,3.185-.7-2.556 2.07-1.651 2.39-3.185z"/>
  <path d="m179.16,102.72c2.23-.124 2.598,2.251 1.593,3.185-1.4-.19-1.81-1.37-1.59-3.18z" fill="#fff"/>
  <path d="m337.61,130.59c.926-.129 1.417.176 1.593.796-.729,9.005-2.056,15.887-1.593,22.295-5.239.727-5.78-3.244-9.555-3.981-11.012.381-19.335,2.412-30.257,3.981-4.001.575-10.729,5.817-15.129,0 6.825-9.176 21.701-16.314 35.035-11.944 2.221-.698 3.933-1.906 6.369-2.389 5.051.258 5.205,5.412 9.556,6.37 .25-3.82 1.93-10.72 3.98-15.13z"/>
  <path d="m262.76,151.29c-3.627-1.91-7.378-9.601-3.981-13.536 6.92.48 7.2,9.15 3.98,13.54z"/>
  <path d="m117.05,152.88c-2.824-.183-7.657,1.575-10.351.796 1.97-.98 9.07-4.33 10.35-.8z" fill="#fff"/>
  <path d="m318.5,154.47c4.741,1.363 11.907.302 14.332,3.981-1.675,4.074.797,3.198 1.593,6.37-.029,2.625-2.265,3.044-4.777,3.185-3.804-.177-3.415-4.547-6.37-5.574-2.999-.344-3.626,1.683-4.777,3.185 .781,1.076 2.124,1.591 3.185,2.389-1.92,3.99-9.388,4.058-15.128,3.981-6.534-.088-13.386-.947-17.518-3.185 .586-4.674 1.093-5.718-3.185-6.37 1.369-3.143 5.034-3.989 9.555-3.981 .593,2.451-2.186,1.53-1.593,3.981 8.806-4.962 19.687-5.293 27.868-3.981 1.05-3.43-3.79-.98-3.18-3.98zm-21.5,12.74c1.507,1.413 5.258.58 7.962.796-.14-4.4-7.34-5.32-7.96-.8z"/>
  <path d="m242.86,156.07c2.46,2.317.754,8.8 2.389,11.943 4.562,1.609 14.434-.327 20.702,1.592-4.062,4.612-13.02,1.125-19.906,1.593 .129.926-.176,1.417-.796,1.592-.512,4.715 2.893,4.288 4.777,4.778 .854,2.408-1.854,1.17-3.185,1.592-4.615,1.464-15.132,2.124-23.888,1.593-.19-3.79 1.011-8.973-2.389-9.555-4.789.076.478,3.218-1.592,4.777-2.486-.699-2.614-3.756-4.777-4.777-26.135.987-62.841.055-88.382,0-1.624.234-1.562,2.154-3.185,2.389-1.173,4.244 2.158,6.815.796,8.759-7.878,3.135-23.143,1.251-30.257.796 1.001-2.061 6.2-2.861 9.555-3.185 4.876-.47 9.899,1.531 15.129,0 1.941-2.04 1.661-6.301 1.592-10.352 31.596-1.846 66.609-.274 99.53-.796 1.85-.539 2.131-2.646 3.981-3.185-7.15-11.28 10.2-9.98 19.91-9.53zm-16.72,4.77c-1.361,6.11 1.275,8.602 0,15.128 3.424,1.29 11.705,1.29 15.129,0v-15.128c-5.13-2.51-10.08-1.52-15.13,0z" fill="#fff"/>
  <path d="m367.07,156.86c.627,2.75-.744,3.503-2.389,3.981 .714,1.674 1.238,3.54 2.389,4.777 1.105,12.517-1.982,20.843-7.166,27.072 1.53,1.986-1.216,3.272.796,4.777-4.276,7.137-3.847,18.98-13.536,20.703-1.927-6.549 2.475-12.649 1.593-20.703 1.517-1.492 2.001-.087 3.981,0 2.188-.997 2.062-4.307 2.389-7.166-2.158-2.171-1.981,2.06-4.777,1.593-.536-3.986.737-6.163.796-9.555 2.924-.526 4.97-1.932 5.574-4.777 2.007-.369 5.453.103 6.369-3.186 .518-3.967-2.208-4.691-3.185-7.166 .33-5.5 1.51-10.16 7.17-10.34z" fill="#fff"/>
  <path d="m241.26,160.84v15.128c-3.424,1.29-11.705,1.29-15.129,0 1.275-6.526-1.361-9.019 0-15.128 5.06-1.52 10.01-2.51 15.13,0zm-11.14,11.95c2.622,1.344 5.09.472 7.962,0-.37-4.331-.471-4.196-.796-7.962-5.04-4.9-10.7,1.97-7.16,7.96z"/>
  <path d="m278.69,159.25c2.424-.035 3.097,1.681 4.778,2.389-.384,4.129.857,9.881-.797,12.739-1.906,1.812-2.932-1.747-6.37-.796-1.08-5.11-.05-10.61 2.39-14.33z"/>
  <path d="m237.28,164.82c.325,3.766.426,3.631.796,7.962-2.872.472-5.34,1.344-7.962,0-3.54-5.98 2.12-12.85 7.16-7.96z" fill="#fff"/>
  <path d="m304.96,168.01c-2.704-.216-6.455.617-7.962-.796 .62-4.52 7.82-3.6 7.96.8z" fill="#fff"/>
  <path d="m329.65,171.99c-2.423,7.685-15.912,9.527-23.091,5.574-.013-3.076 4.657-3.794 5.573-1.593 4.482-2.153 10.193-3.077 13.536-6.37h2.389c.68.64.47,2.18 1.59,2.39z"/>
  <path d="m113.07,172.79c-2.244.827-7.45,1.524-9.555,0 .67-2.32 9.49-4.4 9.55,0z" fill="#fff"/>
  <path d="m99.534,171.99c-.177,2.476-3.963,1.345-6.37,1.592-.486-3.14 4.372-.93 6.37-1.59z" fill="#fff"/>
  <path d="m117.05,174.38c.82,3.25-3.718,4.247-3.185.797 .72-.62 1.8-.86 3.19-.8z" fill="#fff"/>
  <path d="m90.775,176.77c-.394,3.235-3.018,5.12-5.574,3.981-.139-3.77 3.007-5.13 5.574-3.98z" fill="#fff"/>
  <path d="m127.4,178.36c3.516-.115-.076,1.95.796,3.981h-3.185c-.85-2.97 2.98-1.26 2.38-3.98z" fill="#fff"/>
  <path d="m189.51,179.95c-9.689,2.098-24.757-1.173-34.238.796-.411-3.861 7.142.24 7.962-2.389 7.2,2.09 19.14-.56 26.28,1.59z" fill="#fff"/>
  <path d="m144.12,185.53c4.355-2.735 6.807,3.137 6.37,5.574 2.644-1.613.436-3.271.796-7.166-5.994-1.693-6.814,1.545-11.147,3.185 .254-1.869 1.258-2.988.796-5.574-1.914,1.006-4.815,1.024-6.37,2.39-.18,4.16.013,7.948.796,11.146-3.258,1.841-7.881,1.406-14.333,1.593-5.98,4.61 1.364,17.735-3.185,23.887-2.701-8.092-1.263-17.65-.796-26.276 4.378-1.991 13.355.615 15.128-3.981 .329-3.778-2.717-4.183-2.389-7.962 4.931-4.92 17.317-3.079 23.887-.797-.085,2.896 1.602,4.633 1.592,7.167-.014,3.958-3.541,7.479-3.185,11.146 .228,2.343 1.802,2.795 1.593,5.574-2.341-.579-3.357-2.482-3.185-5.574-1-3.351-8.726-4.459-11.147-1.592 .367,8.741-3.704,16.453 0,23.886 1.075,2.111 4.197,2.174 3.981,5.574-4.24,1.619-6.799-4.709-8.759-7.963-.743.584-1.207,1.449-1.592,2.389-1.78-.342-.323-3.924-.796-5.572h3.185c.664-9.422 1.14-19.033 3.185-27.073 3.432-.778 2.317,2.991 4.777,3.185 1.34-1.35.64-4.7.8-7.19zm.8,8.76c3.082.747 7.766-.97 3.981-2.389 .14,2.26-5.21-.97-3.98,2.39z" fill="#fff"/>
  <path d="m214.99,179.16c.707,2.603 2.709,12.575-1.592,12.74v-9.555c-5.851.48-11.619-1.592-19.11-1.593 3.83-2.34 12.93-1.18 20.7-1.59z" fill="#fff"/>
  <path d="m203.04,187.12c-1.565,4.156.64,7.218 0,9.555-10.747,3.849-31.324-3.555-43.793,3.981 9.172-.607 22.256-2.733 31.85,1.592-.072,2.173 1.326,1.604 0,3.186 5.991,7.544 12.994,14.078 16.721,23.886-2.867,4.291.039,9.85-1.592,15.129-1.208,3.91-5.397,6.094-6.37,10.352 .732,2.17 2.489-1.111 4.777,0-1.098,6.334-4.867,9.994-12.74,9.555-3.499.668-.589,3.129-2.389,4.777-4.312,1.078-16.628-3.49-21.499.797-2.043-4.594-10.351-2.92-13.536-6.371-4.028-.045-6.194,1.77-8.759,3.186 .099,3.467-1.542,5.295-5.574,6.369 .011-4.791 3.118-9.568 4.777-11.146 2.019-1.918 5.409-1.373 5.574-3.186 .179-1.969-4.258-3.061-5.574-4.777-.132-.172-.029-2.801-.796-3.98-.378-.58-2.129-1.01-2.389-1.592-1.851-4.162-3.558-12.342-2.389-16.723 5.533.041 5.585,5.564 5.574,11.148 1.326,5.162 7.846,8.98 6.37,14.332 1.612.803 7.003-.992 6.37,3.98 9.659.17 18.332,3.062 26.276.797 6.169-1.76 10.044-7.102 15.129-8.758-.391-7.73 3.216-13.938 3.185-20.703-.077-16.5-13.292-29.575-29.46-29.46-4.663.033-8.556,2.809-14.333,1.593-4.818-3.486-2.195-13.076-.796-19.11 14.672-1.591 29.011.597 42.201-.796 .79,1.07 2.13,1.58 3.19,2.38zm-19.9,2.39c-6.205-.004-13.162.026-15.925.796-2.488-.364-2.545,1.701-2.389,3.981 5.254-.036 11.707.047 17.517,0 5.456-.044 12.502,1.375 14.332-2.389-1.53-3.33-7.9-2.39-13.54-2.39z" fill="#fff"/>
  <path d="m297,213.4c-3.662-.32-3.988-3.975-5.574-6.37-3.475-1.568-5.082-5.004-7.962-7.167-13.408-1.455-22.531-7.194-38.22-6.369 1.081-3.48 5.343-2.826 7.962-3.981 3.002-1.323 4.75-3.727 8.759-3.981 10.854-.689 21.644,10.056 31.85,11.147 2.19,5.3 2.66,8.88 3.18,16.72z" fill="#fff"/>
  <path d="m196.68,191.9c-1.83,3.764-8.876,2.345-14.332,2.389-5.811.047-12.263-.036-17.517,0-.157-2.28-.099-4.346 2.389-3.981 2.763-.77 9.72-.8 15.925-.796 5.64,0 12.01-.94 13.54,2.39z"/>
  <path d="m148.9,191.9c3.784,1.419-.899,3.136-3.981,2.389-1.23-3.36 4.12-.13 3.98-2.39z"/>
  <path d="m129,201.45c-.984,14.096-.526,22.272-2.389,32.645 1.156,2.031 2.125,4.246 3.981,5.574-2.522,5.234.596,10.617-2.389,17.518-.626-8.93-2.654-16.455-7.167-21.498 1.317-5.584.846-12.955 3.981-16.721-2.448-3.186-2.421-8.235-.796-11.944 .616-3.104-2.943-4.129-.796-6.37 1.79-1.8 4,.05 5.59.79z" fill="#fff"/>
  <path d="m200.66,203.84c3.812-.361 6.036.864 7.166,3.186 2.345-1.132 5.023-2.405 7.962-.797 .08,13.413 3.99,22.567 2.389,31.85h-3.981c-.352,8.691.218,17.619.796,26.275 .377,5.637 4.057,12.898-1.592,12.74 .586-11.994-2.459-25.828-3.185-39.016 1.875.018 2.345-1.371 4.777-.797 .849-2.992-1.147-5.633-1.592-8.758-.943-6.631.173-14.385-3.185-19.11-.691,3.276-.529,10.243-4.777,8.758-3.542-.705-2.035-6.457-2.389-10.351-.25-1.88-2.77-1.48-2.39-3.98z" fill="#fff"/>
  <path d="m146.51,209.42h2.389c.337,1.664-.546,2.108-.796,3.184-1.4-.19-1.81-1.37-1.59-3.18z" fill="#fff"/>
  <path d="m170.4,211.01c18.544-2.923 28.868,13.78 23.887,30.258-2.967,9.814-13.468,15.879-25.479,13.535-2.243-.438-8.568-2.74-11.147-4.777-.457-.361-.359-1.951-.796-2.389-.378-.379-2.108-.414-2.389-.797-.287-.391-3.82-8.699-3.981-9.555-1.233-6.539 1.78-15.936 5.574-19.906 3.06-3.19 6.94-5.2 14.34-6.36zm-14.33,18.31c-3.341,23.592 29.379,26.438 33.442,8.76 2.172-9.451-2.911-17.561-11.147-22.295-3.467.514-9-1.039-11.147.797-5.72,2.86-10.28,6.67-11.14,12.74z" fill="#fff"/>
  <path d="m222.95,214.19c1.286-.225 1.371.752 2.389.795-.505,16.293 2.601,41.807 0,62.904-3.009-2.393-2.397-7.299-2.389-11.148 .03-13.2.21-31.67 0-52.54z" fill="#fff"/>
  <path d="m167.21,216.58c2.146-1.836 7.68-.283 11.147-.797 8.237,4.734 13.32,12.844 11.147,22.295-4.063,17.678-36.783,14.832-33.442-8.76 .86-6.07 5.42-9.88 11.14-12.74zm-3.18,5.57c.086-.07-4.678,6.77-4.777,7.166-3.969,15.83 16.802,21.35 25.479,11.945-1.292-3.662.652-4.027 2.389-6.371-2.056-2.986-.548-9.537-4.777-10.352 1.597,6.26-3.784,12.623-7.166,8.76 3.019-2.555 1.022-10.125 4.777-11.943-5.43-3.36-12.07-2.34-15.92.79z"/>
  <path d="m179.95,221.36c-3.755,1.818-1.759,9.389-4.777,11.943 3.382,3.863 8.763-2.5 7.166-8.76 4.229.814 2.722,7.365 4.777,10.352-1.737,2.344-3.681,2.709-2.389,6.371-8.678,9.404-29.448,3.885-25.479-11.945 .1-.396 4.864-7.236 4.777-7.166 3.85-3.13 10.49-4.15 15.92-.79zm-3.98,19.11c3.518.066 6.766-.135 6.37-3.982-2.75.69-5.22,1.67-6.37,3.98z" fill="#fff"/>
  <path d="m117.05,222.95c1.354-.293 1.502.621 1.592,1.592-.677-.146-.751.311-.796.797-.92-.13-.66-1.45-.79-2.39z" fill="#fff"/>
  <path d="m230.12,226.14c1.347,1.572 4.596,1.242 3.98,4.777-2.42-.5-4.07-1.78-3.98-4.78z" fill="#fff"/>
  <path d="m244.45,226.93c-.242,2.414-3.072,2.236-3.186,4.777-1.639-1.016-4.039-1.27-3.98-3.98 4.29.9 3.34-.27 7.17-.8z" fill="#fff"/>
  <path d="m270.72,235.69c4.322,2.578 5.356,8.445 7.166,13.535-1.978,1.883-4.687.008-7.166,0 .01-4.22-2.07-9.8 0-13.53z" fill="#fff"/>
  <path d="m182.34,236.48c.396,3.848-2.852,4.049-6.37,3.982 1.15-2.3 3.62-3.28 6.37-3.98z"/>
  <path d="m253.21,237.28c3.559.74 2.188,5.756-2.389,4.777 .594-2.451-2.186-1.529-1.592-3.98 2.03.42 2.78,1.05 3.98-.8z" fill="#fff"/>
  <path d="m91.572,241.26c1.642,3.463.4,8.174 0,11.943-6.327,1.131-11.307-.16-16.721-.797 2.145-7.26 7.536-15.7 16.721-11.14z" fill="#fff"/>
  <path d="m402.1,265.95c-15.162-3.855-31.632-8.309-45.385-13.535-4.535-1.725-10.017-1.92-11.944-6.369-.225-1.287.753-1.371.797-2.389 .645-.152.794-.799 1.592-.797 6.842,3.252 21.693,5.328 34.238,7.963 1.352.283 2.657,1.361 3.981,1.592 1.856.324 3.94-.373 5.573,0 1.918.438 3.841,2.082 5.574,2.389 1.983.352 6.065-.656 7.962,0 7.46,2.58 2.93,8.7-2.39,11.15z"/>
  <path d="m216.58,244.45c4.359.354 3.618,9.377 2.389,12.74-1.29-3.43-4.54-8.45-2.39-12.74z" fill="#fff"/>
  <path d="m244.45,245.24c.979.348 1.635,1.018 1.592,2.389-.98-.34-1.63-1.02-1.59-2.39z" fill="#fff"/>
  <path d="m130.59,254.8h2.389c.433,6.111.673,18.645-7.166,19.109-.594-5.105.929-8.094.796-12.74 3.134-1.275.277,3.439 2.389,3.186 2.43-3.04 1.78-4.63 1.59-9.56z" fill="#fff"/>
  <path d="m43.797,260.37c1.046.281 1.252,1.4 2.389,1.592-1,8.707 2.747,16.879-.796,21.498-6.242.139-.805-11.404-4.777-13.535 2.472-3.49.043-6.94 3.184-9.55z"/>
  <path d="m137.75,260.37c.926-.129 1.417.176 1.592.795 .631,2.754-.885,3.361-1.592,4.777-1.361,4.088 3.233,9.182-1.592,9.555-.47-5.67-.93-10.83 1.59-15.13z" fill="#fff"/>
  <path d="m355.13,263.56c1.643,18 12.489,31.662 7.962,50.959 .317,2.338 2.613,2.697 3.186,4.779-.968,2.482-1.489,5.41-5.574,4.777-3.522-4.588-2.104-10.037-3.185-17.518-.854-5.9-3.054-14.244-4.777-23.092-2.08-10.68-7.12-17.41 2.39-19.91z"/>
  <path d="m113.87,265.95c2.162,2.617 2.2,7.355 3.981,10.352-3.465.811-3.662-1.646-5.574-2.389 .64-2.53.5-5.86 1.59-7.96z" fill="#fff"/>
  <path d="m206.23,267.54h3.185c.802,2.395-1.774,1.41-3.185,1.592-.01-.53-.01-1.06-.01-1.59z" fill="#fff"/>
  <path d="m312.92,273.91c2.235,5.463 1.391,14.004 3.186,19.906-7.112.027-7.09-6.979-6.37-12.74-.165-2.906-3.517-5.455-1.593-7.963 1.24-1.32 3.1.27 4.77.79z"/>
  <path d="m140.94,273.91c13.695.795 38.842,1.539 55.736.797 5.291-.232 11.983-3.16 15.129,2.389-20.033.578-39.791.963-68.477-.797-1.74.14-2.54-.65-2.39-2.39z" fill="#fff"/>
  <path d="m121.03,279.48c2.704.217 6.456-.617 7.962.797 .254,1.846-.128,3.057-.796,3.98-4.1.13-5.36-2.59-7.16-4.78z" fill="#fff"/>
  <path d="m211.8,280.28c-4.488,8.164-22.976-.125-29.461,3.98-15.382-3.465-27.261,1.818-38.219-1.592-3.465-.016-4.439,2.461-8.759,1.592 .472-2.541-1.495-2.463 0-3.98 28.16-1.09 48.76-.66 76.44,0z" fill="#fff"/>
  <path d="m228.52,279.48c-.814,4.227-6.93,3.154-10.351,4.777 .593-2.451-2.186-1.531-1.592-3.98 2.62-1.63 8.06-.43 11.94-.8z" fill="#fff"/>
  <path d="m88.387,283.46c1.283,3.086 4.744,10.176-.796,11.148-.658-4.65-5.704-4.912-5.574-10.352 1.754-.72 3.42.11 6.37-.8z" fill="#fff"/>
  <path d="m211.01 286.65h1.592v1.592h-1.592v-1.59z" fill="#fff"/>
  <path d="m231.71,293.02c1.887-2.678 5.69,2.094 3.186,3.982-2.2-.19-1.82-2.96-3.19-3.98z"/>
  <path d="m84.405 347.16c-1.627 11.156-23.725 8.861-29.46 4.777 4.471-6.46 22.104-3.84 29.46-4.78z"/>
  <path d="m321.68,359.11c.126,7.027-5.772,8.029-11.943,8.76 .018-1.877-1.372-2.346-.796-4.777 5.24-.33 6.81-4.35 12.74-3.98z"/>
  <path d="m25.484,368.66h2.389c2.747,3.398 4.29,7.672 7.962,10.352 2.354,1.717 7.765,4.549 11.147,5.574 2.4.727 5.423.066 7.962.795 1.01.291 1.942,1.961 3.185,2.389 3.412,1.18 7.887.467 11.147,1.594 2.287.789 7.258,4.609 12.74,3.186 8.842,4.162 19.67,6.34 23.887,15.127-.499,3.768-5.177,7.537-3.981,10.352-2.795,2.742-.582-6.279-3.185-6.369-1.899,1.02-4.315,1.523-4.777,3.98-21.164-11.482-49.912-15.379-71.662-26.275 2.253-5.71 3.819-12.1 3.188-20.7z" fill="#fff"/>
  <path d="m85.998,388.57c4.787.236 9.912,3.389 14.332,5.574 3.863,1.91 11.409,3.521 8.759,9.555-4.537-2.629-9.021-5.311-11.943-9.555-4.519-1.06-10.061-1.09-11.149-5.57z" fill="#fff"/>
  <path d="m301.78,429.97c-.483,2.438-1.69,4.148-2.389,6.371-11.88.96-3.06-14.1 2.39-6.37z"/>
  <path d="m356.72,140.14c2.148,1.837 3.973-3.424 7.962-2.389 3.375.606 4.25,3.712 6.37,5.574 .844,7.15-.789,14.14-.797,20.702-.015,13.535 1.481,25.61-7.166,33.441-1.368,9.514-3.959,17.804-7.962,24.683-2.847.338-4.249,2.121-7.963,1.594-3.2,5.748-1.814,12.377-3.185,18.312-.484,2.1-2.296,3.312-3.185,5.574-1.268,3.225-.568,6.85-1.593,9.555-.708,1.871-2.972,3.547-3.981,5.574-2.485,4.992-3.124,9.438-7.166,12.738-1.519,1.496-1.44-.473-3.981,0 1.476,12.857 4.131,24.535 6.37,36.627 3.941-1.979 2.435-7.025 3.186-10.35 .782-3.471 2.495-6.656 3.185-10.352 .699-3.752.118-7.984.796-11.943 .271-1.574 1.448-3.223 1.593-4.777 .544-5.828-2.563-16.891 4.777-19.109 .04,24.129-6.511,42.459-7.962,62.902-1.832,1.354-2.63,3.74-3.981,5.574 2.211,7.078 4.188,14.391 6.37,21.498 2.501,1.117 3.609,1.055 5.573,2.389 2.986,2.027 2.234,3.953 8.759,3.184 4.949,3.451 7.915,8.646 11.943,13.537 1.367,1.66 2.053,3.443 3.185,4.777 4.983,5.877 13.538,10.186 15.129,19.109-4.581,3.871-7.237-.73-9.555-3.186-7.016-7.424-13.221-19.396-21.499-25.479-2.255,5.441 1.18,16.572-3.185,19.906-3.14,18.875-15.68,32.738-26.275,45.385-5.013,5.982-6.796,10.477-13.536,13.537-1.491,1.959-2.49,4.41-3.981,6.369-3.972.4-5.971,4.775-9.555,3.186-1.59-3.629 2.989-5.303 4.777-7.166 11.033-11.506 23.095-24.084 33.442-37.424 .768-6.207 7.818-13.709 10.351-19.906 .608-1.488.285-3.914.796-5.574 1.153-3.748 8.029-20.324-1.592-21.498-1.019,6.68-3.93,11.465-4.777,18.314-3.137,1.111-3.651,4.842-5.574,7.166-4.796,7.943-11.557,13.922-15.925,22.295-5.495,2.201-6.67,8.723-12.739,10.35-2.33,4.674-8.205,9.703-12.74,9.555-1.221-9.775 13.257-10.584 15.925-19.109 .062-4.043-3.518-4.443-4.777-7.166-.566-2.352-.22-5.619-2.389-6.369-2.882,1.961-4.187,6.602-5.574,10.352-1.424,3.85-1.724,8.646-4.777,11.146 .572,5.35-1.122,8.434-5.573,8.758-1.889-3.982.779-11.58 3.185-17.516 2.204-5.438 6.095-10.582 7.963-15.129-.124-2.248 2.251-1.996 3.185-3.186-2.508-5.453-4.572-11.352-7.962-15.924-3.23-3.389-9.148-5.422-11.944-9.555-2.757-4.078-2.222-9.865-3.98-14.334-2.65-6.73-9.523-10.777-13.536-16.721-.66-.977-.948-2.855-1.593-3.98-1.646-2.873-3.484-6.373-5.573-10.352-7.717,2.104-11.852,7.789-18.313,11.148-15.792,4.24-26.412-11.662-13.536-17.518-.912-4.072-5.995-5.107-2.389-9.555 2.823.627 2.736,4.164 5.573,4.777 5.372-.732 7.478-4.732 12.74-5.574 9.015-9.299 19.969-16.658 25.479-29.461 2.416-.293 1.653,2.594 2.389,3.98 6.455-.465 10.061,2.199 15.129,1.594 8.885-1.062 14.321-12.326 23.091-7.963 .555,4.424-4.675,4.23-7.166,5.574-7.532,4.061-16.433,9.223-25.48,12.74-5.85.361-13.679,2.473-17.517,5.572-7.842,6.336-15.8,12.93-24.684,18.314-2.999,1.816-7.229,2.639-8.759,6.369 4.5,3.922 12.434-.24 12.739-5.574 4.637,4.42-2.594,7.777-4.777,10.352 7.213,1.102 15.382-3.723 19.11-8.758 7.632-.422 13.523-4.656 19.906-7.963 3.53-1.83 9.251-.906 14.332-1.592 4.328-.586 7.676-3.955 11.943-1.594-.019,5.291-5.075,5.541-10.351,5.574 3.457,7.936 17.435-.605 19.905,5.574-4.801,8.072-17.982,1.793-23.091-1.594-1.573-1.85-1.573-2.131 0-3.98-9.466-.707-13.177,4.34-19.109,7.166 1.921,9.492 7.761,15.064 13.536,20.703 3.008-5.666 1.651-12.492 3.98-17.518 5.164,2.123 3.503,11.32 3.186,18.312-.274,6.051-1.913,13.135 0,18.314 2.763,7.48 10.362,7.668 13.536,14.332 8.111.912 15.824,2.225 18.313,8.758-4.288,3.123-8.383-2.463-14.332-2.389-1.868,3.072 2.64,5.559 3.98,7.963 1.132,8.158 6.82,11.758 8.759,19.109 5.704-2.258 6.043-9.881 11.943-11.943 5.43-10.566 21.576-25.041 11.147-39.016-2.458-.129-4.5,1.881-6.37,0 .394-9.416-1.718-16.33-3.185-23.887-.12-1.473-2.696-.488-3.185-1.592-.361-9.99 1.578-22.281-3.186-27.869 1.307-12.002-3.816-18.809 0-25.48-1.23-8.27-3.312-17.043-11.147-22.293-6.062-15.438-15.135-27.863-22.294-42.202-7.354-3.808-16.415-3.137-24.684-5.573-4.713-1.389-8.445-4.426-13.536-4.777-4.597-.318-9.374,1.184-14.333,1.592-4.217-1.985-13.472-5.285-17.517-2.389 .908,6.158 11.122,8.221 15.925,5.574-.931,8.929-9.441.897-15.925,1.592 .134,5.44 5.165,5.982 7.166,9.556 6.396.623 11.312,4.824 17.518,3.98 2.212-.301 2.655-1.951 4.777-1.592 2.733.461 3.445,2.365 6.37,3.98 6.38,3.521 13.527,5.553 22.294,7.166 .238,10.113 4.751,15.951 8.759,22.295 2.532-1.551-.207-3.756 2.389-5.574 3.06.658.393,7.039 3.186,7.963 5.354,1.553 12.633-2.812 17.517.797-4.08,5.242-12.608,4.529-19.109,3.98-11.436-.967-25.388-3.986-34.238-3.186-7.519,5.754-11.554,14.988-18.313,21.498-1.164,2.834 2.559,4.771.797,5.574-3.828,6.523-8.498,12.205-12.74,18.314-20.476-3.621-42.062,1.449-60.514-2.389-9.23,2.162-24.047.855-34.238.795-1.115-6.848-7.384-8.539-11.147-12.738-4.782,3.738-.812,9.736-2.389,14.332-2.114,6.16-10.568,7.969-11.943,14.332 6.229,16.334 3.626,33.234-9.555,42.201-1.679,9.998-4.334,19.021-6.37,28.664 10.305,3.23 18.761,8.311 28.665,11.943-.01,12.465-4.315,20.633-4.777,32.645-3.514.072-3.729,3.145-6.37,3.186-4.276.066-7.438-6.314-10.351-8.758-5.387-.018-9.48-4.486-14.332-6.371-1.874-.727-4.304-.104-6.37-.795-1.775-.596-3.031-2.605-4.777-3.186-2.94-.979-6.508-1.449-9.555-2.389-3.076-.947-6.042-2.508-8.758-3.186-2.83-.705-6.102-.086-8.759-.795-6.259-1.674-10.552-6.289-16.721-7.166-2.507-3.6-5.57-6.641-9.555-8.76-5.851,2.111-3.375,12.549-6.37,17.518-3.095,1.678-6.342.416-7.962-1.592-.166-8.129 4.488-11.438 5.574-18.314 5.822-1.609 5.72-9.143 12.74-9.555 1.363-2.883 1.986-6.506 1.592-11.146 3.426-2.68 6.821-5.389 11.147-7.166 3.653-14.215 1.004-29.834-1.593-44.59-.208-1.182-1.459-2.719-1.592-3.982-.271-2.574 1.15-4.846-1.592-7.166 .691-11.406-3.17-15.492-.796-23.887-2.435-4.73-3.542-10.791-3.981-17.518-.802-1.586-1.989-2.787-3.185-3.98 3.377-13.078 8.239-24.672 12.74-36.627-1.268-5.848 3.296-10.648 4.777-15.924 1.115-3.973.518-8.831 1.592-12.74 .846-3.075 3.203-5.467 3.185-8.759 7.858-6.739 16.745-12.45 22.295-21.498 4.317-1.377 7.394-4.114 11.147-7.167 3.681-2.994 7.367-8.695 14.333-8.758 6.515-.06 15.585,2.332 26.276,1.592 5.226-.362 10.104-3.199 13.536.796 .211,6.316-2.197,10.012-6.37,11.943 .681-2.538-.693-3.022-1.592-3.981-6.515.517-7.849,1.933-14.333,1.592-3.443-.007-3.145-3.756-5.574-4.777-18.911-4.064-24.618,8.707-35.034,17.517-3.316,2.805-7.181,3.81-9.555,7.167 2.587,3.062 6.135,1.319 9.555,1.592 4.334.347 9.364,1.905 13.536.797 4.145-1.102 5.112-5.768 9.555-8.759 3.548-2.39 9.183-3.807 15.128-4.777 5.27-.86 10.085-1.385 15.925-4.777 2.395-.803 1.411,1.774 1.592,3.185 21.377-1.357 30.503.774 54.145-.796-1.761-5.14-8.869-4.933-7.167-13.536-3.648,1.661-1.157,9.459-3.185,12.74-5.065-7.382-3.278-24.83 6.37-25.479 2.032-.137 3.583,1.666 6.37,3.981-1.194-8.428-4.386-16.675-5.574-24.683-.311-2.092.25-4.368 0-6.37-.593-4.743-1.268-8.868-2.389-15.128-.287-1.602-1.604-3.926-1.593-5.574 .014-1.834.53-6.637 1.593-9.555 .943-2.588 3.895-4.562 4.777-7.167 1.028-3.035-.747-7.766 0-11.147 .422-1.911 2.039-4.124 3.981-7.167 1.456-2.28 2.619-4.781 3.981-7.166 1.245-2.179 3.27-4.032 4.777-6.37 3.126-4.847 5.001-9.749 8.759-13.536 2.649-2.671 6.549-3.995 7.962-7.167 3.323-.588 6.164-.736 9.555-2.389 4.969-2.421 6.927-5.614 13.536-8.758 3.957-1.883 7.04-1.968 11.943-3.981 2.031-.833 3.009-2.684 4.777-3.185 5.115-1.448 12.85-2.299 18.313-2.389 9.165-.15 21.557,4.414 33.442,5.574 6.897.673 15.324-.651 20.702,1.593 1.475.615 2.823,2.814 4.777,3.981 6.39,3.814 13.413,7.95 18.313,14.333 2.971.48 3.905,2.995 7.166,3.185 3.009,8.404 4.091,18.734 9.555,24.684 .041,3.427.11,5.153 1.593,7.962 .36.684.272,2.123.796,3.185 1.373,2.781 4.301,5.26 4.777,7.962 .498,2.821-1.046,6.305-1.592,11.147-1.081,9.574 1.619,22.055 0,35.831-.198,1.678-2.163,3.506-2.389,5.574-.2,1.824 1.153,3.168.796,4.777-.84,3.65-3.33,6.97-3.23,10.44zm-213.39,52.55c-2.46-.193-1.345-3.963-4.777-3.185-2.045,8.04-2.521,17.65-3.185,27.073h-3.185c.474,1.648-.984,5.23.796,5.572 .386-.939.849-1.805 1.592-2.389 1.96,3.254 4.519,9.582 8.759,7.963 .216-3.4-2.907-3.463-3.981-5.574-3.704-7.434.367-15.145 0-23.886 2.421-2.867 10.148-1.759 11.147,1.592-.172,3.092.844,4.995 3.185,5.574 .209-2.779-1.365-3.231-1.593-5.574-.356-3.667 3.171-7.188 3.185-11.146 .009-2.534-1.678-4.271-1.592-7.167-6.57-2.282-18.956-4.123-23.887.797-.329,3.779 2.717,4.184 2.389,7.962-1.773,4.597-10.75,1.99-15.128,3.981-.466,8.626-1.905,18.184.796,26.276 4.549-6.152-2.795-19.277 3.185-23.887 6.451-.187 11.074.248 14.333-1.593-.783-3.198-.976-6.986-.796-11.146 1.555-1.365 4.456-1.384 6.37-2.39 .461,2.586-.542,3.705-.796,5.574 4.333-1.64 5.154-4.878 11.147-3.185-.36,3.896 1.848,5.553-.796,7.166 .437-2.438-2.015-8.31-6.37-5.574-.16,2.52.54,5.87-.79,7.19zm131.38-179.15c-3.735-1.726-7.911-3.467-11.943-.796-5.722-3.565-12.47,1.964-19.906,1.592-5.005-4.681-7.917,1.075-11.944,3.981-6.83,4.929-12.204,6.045-22.294,5.574-3.409,4.208-8.506,6.995-11.944,11.147-2.241,2.708-3.945,6.325-5.573,9.555 3.896.181 5.004-2.427 8.758-2.389 5.345,1.821 5.508,8.825 9.555,11.944 2.444.55 5.173-.76 7.166,0 1.842.702 1.387,2.587 2.389,3.981 1.596,2.22 6.722,4.22 4.777,7.962-6.479,1.217-14.704.69-19.905,3.185-2.271,3.088.481,7.204-3.981,8.759-6.141-1.904-17.594-3.974-11.943-12.74 1.907-.481 3.633-1.145 6.37-.796-1.973-6.042 1.976-10.671 7.962-11.147-.658-2.25 1.122-2.063.796-3.981-.254-1.87-2.464-1.782-3.185-3.185-5.873.497-7.732,5.007-13.536,5.574-1.805,3.237-2.523,7.562-5.573,9.555 .063,13.371-5.78,19.929-3.981,35.035 1.702.952.989,4.319 4.777,3.185-.787-5.193-2.083-6.776.796-10.351-.251-1.872-3.774-.472-3.185-3.185 .728-1.396 1.48-2.767 3.981-2.389 .7-2.558-2.625-1.091-2.389-3.185 1.597-2.385 6.537-1.426 10.351-1.593 1.991,2.097.348,4.277 2.389,7.167-5.582,7.082-2.495,19.589-6.37,27.072 1.96,1.755 6.104,1.328 6.37,4.777-.252,2.933-5.983.387-7.167,2.389 2.07,1.646 7.755-.324 7.962,3.185-.487,6.148-6.417,6.854-8.758,11.147 3.145,6.805 1.434,13.54 1.592,23.091-1.516.342-2,1.715-3.981,1.592-5.726-4.277-5.481-20.588-15.925-15.128 .149,3.035 4.443,1.927 4.777,4.777 1.414,5.222 5.086,8.185 4.777,15.129 13.992,1.324 29.309,1.158 42.201,0 .122-4.125-.812-9.306 2.389-10.351 3.375-.606 9.429,1.467 10.351-1.593-4.938-1.268-11.979-2.483-18.313-1.592-4.19.589-8.515,4.52-10.351,1.592 1.46-3.847 4.784-5.833 7.962-7.962 4.197,1.414 6.893-2.032 10.351-2.389 6.643-.684 12.982,2.687 20.703.796 5.471,3.288 13.361,4.156 14.332,11.943-3.256,2.662-6.137-1.784-8.759,0-1.421,2.918-1.856,6.08-.796,9.555 6.402,1.398 15.173-2.003 21.498,1.592 .544,5.016.094,11.631 1.593,17.517 11.334,8.837 36.62,3.723 31.85,28.666 7.487,1.535 13.452,4.594 15.128,11.943-.691,1.164-1.191,2.523-3.185,2.389-5.046-2.387-6.449-8.414-11.943-10.352-.514,8.475 1.94,13.984 6.369,17.518 2.656-2.084 7.045.887 7.963,3.184-.621.176-.926.668-.797,1.594-.157,2.496-5.209.1-4.777,3.186 1.714,7.479 10.341,12.34 11.944,19.109 .975,4.117-1.356,8.924.796,14.332 3.47-2.006 5.153-7.531 7.166-11.943 3.118-6.84 5.423-11.268 6.37-19.109 .572-4.736 3.467-10.602.796-14.334-1.247,1.143-.627,4.152-3.185,3.982-.866-6.062 3.497-14.777 3.981-19.109 .351-3.151 1.053-5.44 1.592-7.167 .377-1.209-.379-2.773 0-3.981 1.169-3.717 2.754-6.961 3.981-11.147 1.59-5.418 4.52-12.692 4.777-19.11 1.199-2.551 2.869-.913 5.574-.796 1.385-8.435 4.74-14.9 7.962-21.499 2.505-.398 3.112,1.735 4.777,0-.462-4.316-1.654-7.901-5.573-8.759-4.584,3.113-6.018,9.376-8.759,14.333-.238,4.274 1.144,10.167-3.186,10.351 .58-2.173-1.582-1.603-1.592-3.185 .798-10.512-.738-28.66-.797-38.219-3.055-4.377-5.4-9.462-5.573-16.721 .323-1.534 3.087-.629 2.389-3.185 .644-14.679-6.666-20.735-11.147-32.646-.25-1.873-3.774-.473-3.185-3.185 3.687-2.418 7.985-4.223 14.332-3.981 .516,3.466 3.589,4.374 3.981,7.962-1.189,1.199-4.54.238-3.981,3.185 1.698,1.487 5.289,1.081 6.37,3.185 .458,3.94-.635,7.392 0,10.351 .29,1.353 1.829,1.292 2.389,2.389 .772,1.516-1.311,4.968 1.593,3.981 3.553-2.515 1.141-13.72 1.592-16.721 1.367-1.288 1.979-3.331 1.593-6.37-12.374-2.755-11.768-18.489-18.313-27.072v-5.574c-3.725-4.042-12.31-3.653-15.925,0-.94-.917-2.814-.901-4.777-.796-9.41,6.062-19.67,11.895-26.276,20.702-.767,1.022-.646,2.268-1.592,3.185-1.768,1.715-4.448,4.323-7.166,3.981-1.937-1.565.048-2.431.796-3.981 3.473-7.197 10.068-11.081 15.129-15.925-2.82-4.808-4.809-11.914-10.352-13.536-2.881-.843-5.869,1.572-9.555,0-11.894,6.42-21.528,15.1-28.665,26.276 .321,1.537 3.646.069 2.389,3.185-7.023-1.981-4.279,5.807-10.351,4.777-.9-2.802 1.933-4.554 3.185-6.37 1.395-2.024 2.634-4.749 3.981-6.37 1.21-1.456 4.137-2.319 5.573-3.981 1.288-1.49 1.216-3.62 2.389-4.778 2.875-2.836 7.969-3.997 8.759-8.758-4.542-3.506-6.94,1.944-11.943,2.389-2.425-4.216-5.21-2.823-8.759-3.185 2.668-6.622 9.136-9.443 13.536-14.332 10.495,1.15 18.952-2.044 29.461,0 2.975.851 2.27-1.978 4.777-1.593 2.777,2.266 8.075,2.01 10.352,4.777 2.55-.368 2.808-3.032 5.573-3.185 .75,3.236-4.622,2.45-2.389,4.777 5.083-.49 11.402,2.954 12.74-2.389-3.407-1.636-5.747-4.339-8.759-6.37-3.096,2.995-8.314.349-11.943,1.592-4.87-8.481-16.204-1.965-23.888-2.389-.92-.951-.9-2.825-.79-4.787zm-93.96,92.36c1.005-.934.638-3.309-1.593-3.185-.22,1.81.19,2.99 1.59,3.18zm-74.05,47.78c2.694.779 7.527-.979 10.351-.796-1.28-3.53-8.38-.18-10.35.8zm116.25,11.94c-1.85.539-2.131,2.646-3.981,3.185-32.92.521-67.934-1.05-99.53.796 .069,4.05.349,8.312-1.592,10.352-5.229,1.531-10.253-.47-15.129,0-3.355.323-8.554,1.124-9.555,3.185 7.114.455 22.379,2.339 30.257-.796 1.362-1.943-1.97-4.515-.796-8.759 1.624-.234 1.561-2.154 3.185-2.389 25.541.055 62.247.987 88.382,0 2.163,1.021 2.292,4.078 4.777,4.777 2.07-1.56-3.197-4.702 1.592-4.777 3.399.582 2.198,5.765 2.389,9.555 8.756.531 19.272-.129 23.888-1.593 1.331-.422 4.039.816 3.185-1.592-1.885-.49-5.289-.062-4.777-4.778 .62-.176.925-.667.796-1.592 6.887-.468 15.844,3.02 19.906-1.593-6.269-1.919-16.14.017-20.702-1.592-1.635-3.143.071-9.626-2.389-11.943-9.71-.45-27.06-1.75-19.91,9.55zm136.95,1.59c.977,2.475 3.702,3.199 3.185,7.166-.916,3.288-4.362,2.816-6.369,3.186-.604,2.846-2.65,4.251-5.574,4.777-.059,3.392-1.332,5.568-.796,9.555 2.796.467 2.619-3.764 4.777-1.593-.326,2.859-.201,6.169-2.389,7.166-1.98-.087-2.465-1.492-3.981,0 .882,8.054-3.52,14.154-1.593,20.703 9.689-1.723 9.26-13.566 13.536-20.703-2.012-1.505.734-2.791-.796-4.777 5.184-6.229 8.271-14.555 7.166-27.072-1.15-1.237-1.675-3.103-2.389-4.777 1.645-.479 3.016-1.231 2.389-3.981-5.66.17-6.84,4.83-7.17,10.34zm-256.38,5.58c2.105,1.524 7.311.827 9.555,0-.07-4.4-8.89-2.32-9.56,0zm-10.356.79c2.407-.247 6.193.884 6.37-1.592-1.998.66-6.856-1.55-6.37,1.59zm20.706,1.6c-.533,3.45 4.005,2.453 3.185-.797-1.4-.06-2.48.18-3.19.8zm-28.668,5.57c2.556,1.139 5.18-.746 5.574-3.981-2.568-1.15-5.714.21-5.574,3.98zm39.808,1.59h3.185c-.872-2.031 2.72-4.097-.796-3.981 .6,2.72-3.23,1.01-2.39,3.98zm38.22-3.98c-.821,2.629-8.373-1.473-7.962,2.389 9.481-1.969 24.549,1.302 34.238-.796-7.14-2.15-19.08.5-26.28-1.59zm31.06,2.39c7.491.001 13.259,2.073 19.11,1.593v9.555c4.302-.165 2.299-10.138 1.592-12.74-7.77.41-16.87-.75-20.7,1.59zm-95.552,7.17c-7.957-2.276-20.493-1.192-27.868-2.389-6.644-1.077-19.808-3.215-24.684,0-1.287,12.308-4.756,19.601-6.37,32.646-2.531,4.369-4.665,9.137-4.777,15.924-6.146,7.77-12.183,23.369-4.777,33.443 1.222-6.822-1.361-13.77 3.185-15.129 2.366-.707.151,4.602 0,3.186 .534,5.01 3.17,12.576 0,16.721 1.383,3.395 1.815,7.74 1.592,12.74-1.387-.061-2.476.176-3.185.795-.136,6.086 2.175,11.018 3.185,14.332 3.159,10.371 2.281,21.639 4.777,31.055 3.507,13.225-4.258,26.236-4.777,40.607 5.28,2.586 10.567,7.576 17.518,9.555 2.705.77 5.831.047 8.758.797 6.419,1.646 13.139,7.443 19.906,4.777 1.898-9.691 1.042-16.07 3.185-23.092-4.923-.021-7.78,8.584-13.536,10.352-1.504-8.186 9.622-11.584 14.332-17.518 2.046-2.578 2.633-6.369 4.777-8.758 .479-.533 1.892-.229 2.389-.797 1.585-1.812 2.202-3.611 4.778-3.98 2.113-10.492 3.702-24.916-.796-33.443-6.878-3.736-8.237-12.996-15.128-16.721-3.176-.787-2.398,2.381-5.574,1.594-1.795-1.723.659-2.717 0-5.574-4.985-.389-15.398,3.508-15.925-1.592-.055-.533 3.781-2.92 4.777-3.186 4.659-1.244 14.114,2.328 14.333-3.98-2.278-.586-4.504-3.857-2.389-6.371 4.413,1.264 5.078,5.129 9.555,5.574 5.338.531 10.153-6.15 14.332-2.389 .125,3.045-3.251,2.588-4.777,3.98 .667,3.852-.739,5.631-1.592,7.963 1.108,2.342 4.192,2.709 3.981,6.369-1.584,1.07-3.791,1.518-5.574,2.389 1.419,2.828 2.292,6.201 5.574,7.166 5.019-3.539 11.175-6.051 12.74-11.943 2.091-7.871-3.693-17.453-1.592-27.867-1.001-.326-1.627-1.027-1.592-2.389-8.967-5.127-28.686-4.035-38.22-6.371-5.333-1.307-14.672.008-15.128-6.369 4.022-.371 9.533.551 11.147-3.98 2.77,1.59.535,4.043 3.185,4.777 3.354-2.486 4.509-7.17 7.166-10.352-.877-3.021.901-10.23 5.574-10.352 2.254,4.738-5.974,6.27-1.593,7.963 2.833-2.209 3.785-6.301 7.167-7.963 2.169.75 1.822,4.018 2.389,6.369 5.512,1.363 13.088-2.586 15.128,3.186-.036,3.414-4.956,1.945-7.166,3.186 .401,4.117-2.255,5.178-1.593,9.555 2.934,2.906 7.532,4.146 11.944,5.574 2.559-2.219 3.546-6.01 6.37-7.963 .52,4.523-1.047,11.133.796,14.332 .462-5.773 4.361-12.064 0-15.924-.658-5.811 5.772-10.328 5.574-14.334-.33-6.629-10.768-10.504-15.925-13.535-4.981-2.928-10.008-5.334-15.128-7.963-7.208-3.701-9.876-6.823-17.518-5.573-6.355,4.079-9.021,10.618-12.74,16.721-4.083,6.701-10.027,12.502-12.74,19.906-4.394,1.709-4.794,7.414-10.351,7.961-.19-1.135-1.312-1.342-1.592-2.389 2.284-7.27 9.502-9.607 11.147-17.518 6.45-5.227 10.686-12.67 14.333-20.702 1.67-1.515 4.2-2.169 3.981-5.573-1.63-.83-4.24-5.25-.796-6.37 3.613-.429 2.125,4.244 5.574,3.981 5.862-2.951 12.898-1.058 17.517,1.593 3.098-.659 4.915-5.417 7.962-1.593-.356,2.298-3.426,1.883-3.981,3.981 4.103,2.797 8.302,5.499 13.536,7.167 1.021,2.268 4.235,5.336 6.37,3.98 .991-6.152-3.354-13.547-5.574-19.11-.393-2.517 3.951-.295 3.185-3.185-.805-2.242-3.382.22-4.778,0-.02-3.98-2.45-5.53-3.982-7.98zm101.12-3.19c-13.19,1.393-27.529-.795-42.201.796-1.398,6.034-4.022,15.624.796,19.11 5.777,1.216 9.67-1.56 14.333-1.593 16.169-.114 29.384,12.96 29.46,29.46 .032,6.766-3.575,12.973-3.185,20.703-5.085,1.656-8.959,6.998-15.129,8.758-7.944,2.266-16.617-.627-26.276-.797 .634-4.973-4.757-3.178-6.37-3.98 1.476-5.352-5.044-9.17-6.37-14.332 .011-5.584-.041-11.107-5.574-11.148-1.168,4.381.538,12.561 2.389,16.723 .259.582 2.011,1.012 2.389,1.592 .767,1.18.664,3.809.796,3.98 1.316,1.717 5.752,2.809 5.574,4.777-.165,1.812-3.555,1.268-5.574,3.186-1.659,1.578-4.767,6.355-4.777,11.146 4.031-1.074 5.672-2.902 5.574-6.369 2.564-1.416 4.731-3.23 8.759-3.186 3.185,3.451 11.493,1.777 13.536,6.371 4.871-4.287 17.186.281 21.499-.797 1.799-1.648-1.11-4.109 2.389-4.777 7.873.439 11.642-3.221 12.74-9.555-2.288-1.111-4.045,2.17-4.777,0 .973-4.258 5.163-6.441 6.37-10.352 1.631-5.279-1.274-10.838 1.592-15.129-3.727-9.809-10.729-16.342-16.721-23.886 1.326-1.582-.072-1.013 0-3.186-9.594-4.325-22.677-2.199-31.85-1.592 12.469-7.536 33.046-.133 43.793-3.981 .64-2.337-1.565-5.398 0-9.555-1.06-.8-2.4-1.31-3.18-2.39zm93.96,11.94c-10.206-1.092-20.996-11.837-31.85-11.147-4.009.255-5.757,2.658-8.759,3.981-2.619,1.155-6.881.501-7.962,3.981 15.688-.825 24.812,4.914 38.22,6.369 2.88,2.163 4.487,5.599 7.962,7.167 1.586,2.395 1.912,6.049 5.574,6.37-.52-7.83-.99-11.41-3.18-16.72zm-170.4,3.99c-2.147,2.241 1.412,3.267.796,6.37-1.625,3.709-1.651,8.758.796,11.944-3.135,3.766-2.665,11.137-3.981,16.721 4.512,5.043 6.541,12.568 7.167,21.498 2.985-6.9-.133-12.283 2.389-17.518-1.856-1.328-2.826-3.543-3.981-5.574 1.862-10.373 1.404-18.549 2.389-32.645-1.6-.75-3.81-2.6-5.59-.8zm79.62,7.16c.354,3.894-1.153,9.646 2.389,10.351 4.248,1.484 4.086-5.482 4.777-8.758 3.358,4.725 2.242,12.479 3.185,19.11 .445,3.125 2.441,5.766 1.592,8.758-2.433-.574-2.902.814-4.777.797 .726,13.188 3.771,27.021 3.185,39.016 5.649.158 1.97-7.104 1.592-12.74-.578-8.656-1.147-17.584-.796-26.275h3.981c1.601-9.283-2.309-18.438-2.389-31.85-2.939-1.608-5.617-.335-7.962.797-1.13-2.321-3.354-3.547-7.166-3.186-.37,2.5 2.15,2.1 2.39,3.98zm-54.94,4.78c.25-1.076 1.133-1.52.796-3.184h-2.389c-.22,1.81.19,2.99 1.59,3.18zm7.97,4.78c-3.793,3.971-6.807,13.367-5.574,19.906 .162.855 3.694,9.164 3.981,9.555 .28.383 2.01.418 2.389.797 .437.438.339,2.027.796,2.389 2.58,2.037 8.904,4.34 11.147,4.777 12.011,2.344 22.512-3.721 25.479-13.535 4.981-16.479-5.343-33.181-23.887-30.258-7.41,1.15-11.29,3.16-14.34,6.36zm66.88,49.36c-.009,3.85-.62,8.756 2.389,11.148 2.601-21.098-.505-46.611 0-62.904-1.018-.043-1.103-1.02-2.389-.795 .21,20.86.03,39.33 0,52.54zm-105.1-41.4c.045-.486.119-.943.796-.797-.09-.971-.238-1.885-1.592-1.592 .12.94-.14,2.26.79,2.39zm116.25,5.57c.615-3.535-2.634-3.205-3.98-4.777-.09,3.01 1.56,4.29 3.98,4.78zm3.18-3.18c-.059,2.711 2.342,2.965 3.98,3.98 .113-2.541 2.943-2.363 3.186-4.777-3.83.53-2.88,1.7-7.17.8zm-.79,14.33c-2.557-.361-2.74-3.098-3.98-4.777-2.895.025-3.498,2.342-3.186,5.574 3.836-.387 5.491,1.41 6.37,3.98-2.436.578-2.343-1.373-4.778-.795 2.747,3.396-.469,5.82-.795,10.35 2.531-1.217 3.502-.279 6.369,0 .598-2.721-3.234-1.012-2.389-3.98 3.805-2.215 1.871-11.977 8.759-8.758-1.793-4.312-6.54-5.672-9.556-8.76-.43,3.39 5.9,4.14 3.19,7.17zm34.23,7.17c2.479.008 5.188,1.883 7.166,0-1.81-5.09-2.844-10.957-7.166-13.535-2.07,3.72.01,9.3 0,13.53zm-21.49-11.15c-.594,2.451 2.186,1.529 1.592,3.98 4.576.979 5.947-4.037 2.389-4.777-1.2,1.85-1.95,1.22-3.98.8zm-174.38,14.33c5.415.637 10.394,1.928 16.721.797 .4-3.77 1.642-8.48 0-11.943-9.185-4.57-14.576,3.87-16.721,11.14zm144.12,4.78c1.229-3.363 1.97-12.387-2.389-12.74-2.15,4.29 1.1,9.31 2.39,12.74zm27.07-9.56c.043-1.371-.612-2.041-1.592-2.389-.04,1.37.61,2.05 1.59,2.39zm-117.04,16.72c-2.111.254.745-4.461-2.389-3.186 .133,4.646-1.39,7.635-.796,12.74 7.839-.465 7.599-12.998 7.166-19.109h-2.389c.19,4.94.84,6.53-1.59,9.56zm7.16,11.15c4.825-.373.231-5.467 1.592-9.555 .707-1.416 2.223-2.023 1.592-4.777-.175-.619-.667-.924-1.592-.795-2.52,4.31-2.06,9.47-1.59,15.14zm-23.89-1.59c1.912.742 2.108,3.199 5.574,2.389-1.781-2.996-1.82-7.734-3.981-10.352-1.08,2.1-.94,5.43-1.59,7.96zm93.96-4.78c1.411-.182 3.987.803 3.185-1.592h-3.185c-.01.53-.01,1.06-.01,1.59zm-62.9,7.17c28.686,1.76 48.444,1.375 68.477.797-3.146-5.549-9.838-2.621-15.129-2.389-16.894.742-42.042-.002-55.736-.797-.15,1.74.65,2.53 2.39,2.39zm-15.13,7.96c.668-.924 1.05-2.135.796-3.98-1.507-1.414-5.259-.58-7.962-.797 1.79,2.19 3.05,4.91 7.16,4.78zm7.16-3.98c-1.495,1.518.472,1.439 0,3.98 4.32.869 5.294-1.607 8.759-1.592 10.958,3.41 22.837-1.873 38.219,1.592 6.485-4.105 24.973,4.184 29.461-3.98-27.68-.66-48.28-1.09-76.44,0zm81.22,0c-.593,2.449 2.186,1.529 1.592,3.98 3.421-1.623 9.536-.551 10.351-4.777-3.88.37-9.32-.83-11.94.8zm-134.56,3.98c-.13,5.439 4.916,5.701 5.574,10.352 5.54-.973 2.08-8.062.796-11.148-2.95.91-4.616.08-6.37.8zm128.99,3.98h1.592v-1.592h-1.592v1.59zm-188.71,101.12c21.75,10.896 50.498,14.793 71.662,26.275 .462-2.457 2.878-2.961 4.777-3.98 2.604.09.39,9.111 3.185,6.369-1.196-2.814 3.482-6.584 3.981-10.352-4.217-8.787-15.045-10.965-23.887-15.127-5.482,1.424-10.453-2.396-12.74-3.186-3.26-1.127-7.735-.414-11.147-1.594-1.242-.428-2.174-2.098-3.185-2.389-2.539-.729-5.562-.068-7.962-.795-3.382-1.025-8.794-3.857-11.147-5.574-3.673-2.68-5.215-6.953-7.962-10.352h-2.389c.634,8.6-.932,14.99-3.182,20.7zm74.847,4.78c2.922,4.244 7.406,6.926 11.943,9.555 2.65-6.033-4.896-7.645-8.759-9.555-4.42-2.186-9.545-5.338-14.332-5.574 1.088,4.48 6.63,4.51 11.148,5.57z"/>
  <path d="m233.3,234.89c3.016,3.088 7.763,4.447 9.556,8.76-6.888-3.219-4.954,6.543-8.759,8.758-.846,2.969 2.986,1.26 2.389,3.98-2.867-.279-3.838-1.217-6.369,0 .326-4.529 3.542-6.953.795-10.35 2.436-.578 2.343,1.373 4.778.795-.879-2.57-2.534-4.367-6.37-3.98-.312-3.232.291-5.549 3.186-5.574 1.24,1.68 1.424,4.416 3.98,4.777 2.7-3.04-3.63-3.79-3.2-7.18z" fill="#fff"/>
  <path d="m102.72,195.88c1.396.22 3.973-2.242 4.778,0 .766,2.89-3.578.668-3.185,3.185 2.22,5.562 6.565,12.958 5.574,19.11-2.135,1.355-5.349-1.713-6.37-3.98-5.234-1.668-9.433-4.37-13.536-7.167 .555-2.099 3.625-1.684 3.981-3.981-3.047-3.824-4.865.934-7.962,1.593-4.619-2.65-11.655-4.544-17.517-1.593-3.448.263-1.96-4.41-5.574-3.981-3.444,1.12-.834,5.54.796,6.37 .219,3.404-2.311,4.059-3.981,5.573-3.646,8.032-7.882,15.475-14.333,20.702-1.645,7.91-8.863,10.248-11.147,17.518 .281,1.047 1.402,1.254 1.592,2.389 5.557-.547 5.957-6.252 10.351-7.961 2.713-7.404 8.656-13.205 12.74-19.906 3.719-6.104 6.385-12.642 12.74-16.721 7.642-1.25 10.309,1.872 17.518,5.573 5.121,2.629 10.147,5.035 15.128,7.963 5.157,3.031 15.595,6.906 15.925,13.535 .199,4.006-6.232,8.523-5.574,14.334 4.361,3.859.462,10.15 0,15.924-1.843-3.199-.276-9.809-.796-14.332-2.824,1.953-3.811,5.744-6.37,7.963-4.412-1.428-9.01-2.668-11.944-5.574-.663-4.377 1.994-5.438 1.593-9.555 2.21-1.24 7.13.229 7.166-3.186-2.041-5.771-9.617-1.822-15.128-3.186-.567-2.352-.219-5.619-2.389-6.369-3.381,1.662-4.333,5.754-7.167,7.963-4.381-1.693 3.847-3.225 1.593-7.963-4.673.121-6.451,7.33-5.574,10.352-2.657,3.182-3.812,7.865-7.166,10.352-2.65-.734-.415-3.188-3.185-4.777-1.615,4.531-7.125,3.609-11.147,3.98 .456,6.377 9.795,5.062 15.128,6.369 9.534,2.336 29.253,1.244 38.22,6.371-.035,1.361.591,2.062 1.592,2.389-2.101,10.414 3.684,19.996 1.592,27.867-1.565,5.893-7.721,8.404-12.74,11.943-3.282-.965-4.154-4.338-5.574-7.166 1.783-.871 3.99-1.318 5.574-2.389 .211-3.66-2.873-4.027-3.981-6.369 .854-2.332 2.26-4.111 1.592-7.963 1.526-1.393 4.903-.936 4.777-3.98-4.179-3.762-8.994,2.92-14.332,2.389-4.478-.445-5.142-4.311-9.555-5.574-2.115,2.514.111,5.785 2.389,6.371-.219,6.309-9.674,2.736-14.333,3.98-.996.266-4.832,2.652-4.777,3.186 .527,5.1 10.939,1.203 15.925,1.592 .659,2.857-1.795,3.852 0,5.574 3.176.787 2.397-2.381 5.574-1.594 6.892,3.725 8.25,12.984 15.128,16.721 4.498,8.527 2.909,22.951.796,33.443-2.576.369-3.192,2.168-4.778,3.98-.497.568-1.91.264-2.389.797-2.145,2.389-2.731,6.18-4.777,8.758-4.71,5.934-15.836,9.332-14.332,17.518 5.755-1.768 8.612-10.373 13.536-10.352-2.143,7.021-1.286,13.4-3.185,23.092-6.767,2.666-13.487-3.131-19.906-4.777-2.927-.75-6.053-.027-8.758-.797-6.95-1.979-12.238-6.969-17.518-9.555 .519-14.371 8.285-27.383 4.777-40.607-2.497-9.416-1.619-20.684-4.777-31.055-1.01-3.314-3.321-8.246-3.185-14.332 .708-.619 1.798-.855 3.185-.795 .223-5-.209-9.346-1.592-12.74 3.17-4.145.534-11.711 0-16.721 .151,1.416 2.366-3.893 0-3.186-4.546,1.359-1.963,8.307-3.185,15.129-7.405-10.074-1.369-25.674 4.777-33.443 .112-6.787 2.246-11.555 4.777-15.924 1.614-13.045 5.083-20.338 6.37-32.646 4.876-3.215 18.04-1.077 24.684,0 7.375,1.196 19.911.112 27.868,2.389 1.533,2.47 3.963,4.02 3.983,7.98zm-62.108,74.05c3.973,2.131-1.464,13.674 4.777,13.535 3.543-4.619-.204-12.791.796-21.498-1.136-.191-1.343-1.311-2.389-1.592-3.14,2.61-.711,6.06-3.184,9.56zm14.333,82.01c5.736,4.084 27.833,6.379 29.46-4.777-7.356.94-24.989-1.68-29.46,4.78z" fill="#fff"/>
 </g>
</svg>
